<mxfile host="app.diagrams.net" modified="2023-08-29T06:53:49.736Z" agent="Mozilla/5.0 (Windows NT 10.0; Win64; x64) AppleWebKit/537.36 (KHTML, like Gecko) Chrome/116.0.0.0 Safari/537.36" version="21.6.9" etag="bf1ixoctx42KtJgjTlU5" type="github">
  <diagram name="페이지-1" id="yPsnETKXsfhij2pMczYb">
    <mxGraphModel>
      <root>
        <mxCell id="0" />
        <mxCell id="1" parent="0" />
      </root>
    </mxGraphModel>
  </diagram>
</mxfile>
